<svg xmlns="http://www.w3.org/2000/svg" width="19" height="22" viewBox="0 0 19 22">
    <g fill="#1FA386" fill-rule="evenodd">
        <path d="M15.543 9.26c0-4.305-2.164-6.233-3.913-7.087C11.62.978 10.65.012 9.453.012c-1.204 0-2.179.975-2.179 2.178 0 .018.002.035.003.053-1.722.887-3.776 2.823-3.776 7.017 0 0 .49 6.374-3.3 6.282v1.89H18.843v-1.89c-3.79.093-3.3-6.282-3.3-6.282zM5.985 18.543c.126 1.885 1.69 3.375 3.606 3.375s3.48-1.49 3.606-3.375H5.985z" transform="translate(0 .07)"/>
    </g>
</svg>
