<svg xmlns="http://www.w3.org/2000/svg" width="131" height="28" viewBox="0 0 131 28">
    <g fill="none" fill-rule="evenodd">
        <path fill="#0F0F3E" d="M13.743 7.775c.295.033.449.219.449.482v1.15c0 .339-.187.481-.482.481H8.246c-4.83 0-5.574 1.566-5.574 7.84 0 6.275.745 7.874 5.574 7.874h5.464c.295 0 .482.153.482.482v1.15c0 .262-.154.448-.45.481-1.751.186-4.084.263-5.496.263C1.413 27.978 0 25.93 0 17.718 0 9.538 1.413 7.5 8.246 7.5c1.412.01 3.756.055 5.497.274zM33.968 17.74c0 8.212-1.413 10.26-8.29 10.26-6.832 0-8.245-2.048-8.245-10.26 0-8.18 1.413-10.217 8.246-10.217 6.876-.011 8.289 2.037 8.289 10.217zm-13.863 0c0 6.285.744 7.873 5.574 7.873 4.872 0 5.606-1.599 5.606-7.873 0-6.275-.745-7.84-5.606-7.84-4.83 0-5.574 1.554-5.574 7.84zM48.05 7.851c.296.11.449.22.449.526V9.45c0 .34-.186.482-.482.45h-3.23c-2.19 0-3.274.339-3.274 2.113V27.32c0 .34-.154.482-.482.482h-1.752c-.296 0-.482-.153-.482-.482V11.454c0-3.898 3.756-3.942 5.387-3.942.887 0 3.23.12 3.866.34zM67.224 17.072v1.073c0 .635-.11.93-1.15.93H53.92c.11 5.169 1.04 6.538 5.388 6.538h5.837c.295 0 .482.153.482.482v1.15c0 .262-.154.448-.45.481-1.752.186-3.974.263-5.869.263-6.723 0-8.103-2.048-8.103-10.26 0-8.213 1.38-10.217 8.103-10.217 6.351 0 7.84 1.905 7.917 9.56zm-13.305-.417h10.59c-.077-5.497-.931-6.767-5.202-6.767-4.5.011-5.31 1.347-5.388 6.767zM86.814.01c.34 0 .482.187.482.483v26.346c0 .373-.153.526-.526.559-3.416.525-4.982.591-7.544.591-6.877 0-8.18-2.004-8.18-10.26 0-8.213 1.303-10.217 8.431-10.217 2.081 0 3.79.077 5.125.219V.48c0-.295.154-.481.45-.481h1.762v.01zM79.49 9.9c-5.125 0-5.728 1.521-5.728 7.807 0 6.35.592 7.917 5.465 7.917 1.598 0 3.416-.11 5.387-.373V9.9H79.49zM108.178 17.072v1.073c0 .635-.11.93-1.15.93H94.873c.11 5.169 1.04 6.538 5.388 6.538h5.837c.296 0 .482.153.482.482v1.15c0 .262-.154.448-.45.481-1.752.186-3.974.263-5.869.263-6.723 0-8.103-2.048-8.103-10.26 0-8.213 1.38-10.217 8.103-10.217 6.351 0 7.84 1.905 7.917 9.56zm-13.305-.417h10.59c-.077-5.497-.931-6.767-5.202-6.767-4.5.011-5.31 1.347-5.388 6.767zM124.604 7.775c.295.033.449.219.449.482v1.15c0 .339-.154.481-.482.481h-6.767c-1.676 0-3.23.526-3.23 2.234v.591c0 1.26.481 2.19 2.485 3.012l5.245 2.113c3.23 1.303 3.526 3.044 3.526 4.982v.45c0 3.942-2.157 4.72-7.282 4.72-2.672 0-5.87-.22-6.471-.297-.373-.032-.45-.219-.45-.449v-1.15c0-.339.154-.481.45-.481h6.537c3.46 0 4.533-.45 4.533-2.344v-.481c0-1.227-.448-2.048-2.234-2.793l-5.573-2.234c-2.825-1.15-3.46-3.088-3.46-5.091v-.822c0-4.019 3.679-4.347 6.953-4.347 1.456.01 3.844.055 5.77.274z"/>
        <path fill="#F83A5B" d="M129.136 25.013c.72 0 1.306.585 1.306 1.306 0 .72-.585 1.306-1.306 1.306-.72 0-1.306-.586-1.306-1.306 0-.721.585-1.306 1.306-1.306z"/>
    </g>
</svg>
