<?xml version="1.0" encoding="utf-8"?>
<!-- Generator: Adobe Illustrator 13.0.1, SVG Export Plug-In . SVG Version: 6.00 Build 14948)  -->
<!DOCTYPE svg PUBLIC "-//W3C//DTD SVG 1.1//EN" "http://www.w3.org/Graphics/SVG/1.1/DTD/svg11.dtd">
<svg version="1.1" id="Layer_1" xmlns="http://www.w3.org/2000/svg" xmlns:xlink="http://www.w3.org/1999/xlink" x="0px" y="0px"
	 width="175.75px" height="61.771px" viewBox="0 0 175.75 61.771" enable-background="new 0 0 175.75 61.771" xml:space="preserve">
<g>
	<path fill-rule="evenodd" clip-rule="evenodd" d="M21.216,48.98c6.447-2.809,16.431-18.511,18.406-22.774
		c-1.144,0-6.551,0.104-6.551,5.096c-0.832,0-1.664-0.936-1.664-2.184c0-1.976,2.08-4.056,8.943-4.056
		c2.808-4.68,7.384-10.919,10.4-13.103c1.248-0.832,1.352-0.624,0.52,0.208c-0.936,1.352-2.392,3.432-3.848,5.928
		c-2.496,4.056-5.096,9.567-8.319,14.976c-3.016,4.99-6.448,9.047-9.983,12.063c-3.328,2.703-6.655,4.367-8.631,4.783
		C19.656,50.125,19.76,49.5,21.216,48.98L21.216,48.98z M68.845,2.6c-3.952,0-7.799,1.456-11.023,4.055
		C53.766,4.992,45.758,0,37.127,0C26.728,0,20.176,6.551,20.176,13.623c0,5.72,4.888,9.671,10.399,9.671
		c8.215,0,9.359-5.928,9.359-6.552c0-0.416-0.104-1.248-0.521-1.456c-0.208-0.104-0.416-0.104-0.416,0.104
		c0,2.184-4.264,6.759-9.463,6.759c-11.959,0-7.071-21.11,6.135-21.11c7.28,0,14.975,4.783,20.487,7.279
		c-3.536,3.744-7.279,8.943-12.687,19.759c-7.488,14.768-17.263,23.918-28.182,23.918c-5.928,0-12.063-3.848-12.063-13.311
		c0-16.015,21.214-20.383,21.214-3.951c0,6.654-4.68,10.191-8.527,10.295c-4.368,0-5.304-2.705-5.304-5.305
		c0-5.406,2.704-6.447,1.352-6.447c-4.783,0-5.823,12.584,4.576,12.584c6.656,0,10.711-5.824,10.815-11.648
		c0.104-5.407-3.432-10.71-11.751-10.71c-10.295,0-15.703,7.487-15.599,14.871c0,7.279,5.2,14.559,16.119,14.559
		c8.735,0,14.351-3.744,19.239-8.318c5.408-4.992,8.735-11.543,11.543-17.991c1.04,0.208,3.016,0.416,3.744,0.208
		c-0.312,0.832-0.52,3.016,0.208,3.016c0.312,0,0.104-0.624,0.624-1.768c0.728-1.456,2.08-2.184,4.68-3.952
		c1.144-0.832,0.624-1.976-0.52-1.976c-2.288,0-3.328,3.64-6.032,3.64c-0.728-0.104-1.664-0.208-2.184-0.312
		c1.664-4.264,6.032-13,9.983-16.535c1.664,0.728,7.383,3.536,11.439,3.536C78.62,12.479,79.972,2.6,68.845,2.6L68.845,2.6z
		 M68.741,3.432c8.215,0,8.528,7.28,0.728,7.28c-3.952,0-8.007-2.288-10.399-3.328C61.669,5.096,65.205,3.432,68.741,3.432
		L68.741,3.432z M175.75,23.398v0.624l-9.255,0.313c0,0-3.12,4.576-5.928,8.839c-0.416,0.52-2.288,3.432-3.328,5.199
		c-1.664,3.016-5.823,9.672-1.664,11.232c0.521,0.207,1.56,0.727,1.248,1.143c-0.52,0.416-1.352,0.729-2.184,0.729
		c-7.903,0-2.496-10.295,0.624-14.352l0,0c-0.937,1.041-4.472,5.615-8.111,5.615c-1.872,0-2.912-1.143-2.912-2.6
		c0-4.158,8.008-10.711,4.783-10.711c-0.52,0-1.247,0.417-2.287,1.04c-2.808,1.872-4.472,3.849-5.72,5.513
		c-2.392,3.223-4.68,6.551-4.68,6.551l-3.536,0.104c0,0,6.448-9.672,6.552-9.879c-1.664,1.455-4.888,2.496-6.552,0.52
		c-0.312,3.744-5.512,9.775-9.671,9.775c-3.536,0-4.368-3.535-3.432-6.344c-2.704,3.432-5.408,5.928-8.111,5.928
		c-1.353,0-2.704-1.039-2.704-2.912c0-3.016,5.304-7.592,5.304-9.567c0-0.312-0.104-0.728-0.624-0.728
		c-0.936,0-2.08,0.625-3.432,1.664c-2.704,2.287-3.744,4.057-5.824,7.279c-0.936,1.352-0.832,1.352-2.808,4.16h-3.535
		c0,0,6.447-9.672,7.071-10.607c0.52-0.728,1.768-2.6,0.312-2.6c-2.288,0-6.136,3.432-9.255,7.695
		c-1.248,1.871-3.744,5.512-3.744,5.512h-3.536l6.551-9.775c-0.416,0.207-1.976,0.832-3.224,0.832c-1.04,0-1.976-0.52-1.976-1.977
		c0-1.559,1.248-2.287,1.872-2.495l0,0c-3.12,0.104-7.488,4.263-11.751,10.606c-1.144,1.664-1.872,2.809-1.872,2.809h-3.536
		c0,0,1.56-2.289,3.432-5.096l0,0c-0.313,0.207-4.68,5.199-7.384,5.199c-2.392,0-3.016-2.496-2.6-4.576c0,0-3.224,4.576-6.344,4.576
		c-2.288,0-3.224-2.287-3.016-4.264c0,0,0,0.104-0.104,0.104c-0.416,0.729-3.016,4.264-6.24,4.16
		c-7.175,0-1.872-14.039,6.552-14.039c2.184,0,3.328,0.832,3.328,2.704c0.52-0.832,1.768-2.6,1.768-2.6h3.536
		c0,0-3.64,5.408-5.408,8.216c-1.352,1.975-2.184,4.783-0.416,4.783c3.016,0,5.927-4.576,8.319-8.215
		c1.768-2.601,3.224-4.785,3.224-4.785h3.536c0,0-3.327,4.992-5.719,8.632c-1.872,2.6-1.664,4.367-0.416,4.367
		c2.496,0,8.215-5.719,11.127-10.191c1.144-1.664,1.872-2.808,1.872-2.808h3.536l-2.496,3.64v0.104
		c2.6-2.599,5.408-4.055,6.864-4.055c3.224,0,2.911,3.328,1.352,4.368c0.728-0.209,2.496-0.52,3.432-1.976l1.456-2.08h3.64
		l-2.392,3.431l0,0c2.808-2.807,5.096-3.535,6.552-3.535c3.64,0,1.976,3.535,1.976,3.535l0,0c0.52-0.623,3.12-3.535,6.136-3.535
		c1.871,0,2.6,0.832,2.6,2.288c0.104,1.976-1.664,4.265-3.951,8.007c-0.625,1.041-1.769,2.705-0.417,2.705
		c3.328,0,9.256-8.633,9.36-8.84c2.079-2.808,4.68-4.576,7.903-4.576c1.871,0,2.911,1.456,3.327,3.016
		c1.769,4.888,6.863,0.935,8.527-1.456c0.208-0.312,0.521-0.728,0.729-1.04h3.535l-2.392,3.64c0.416-0.416,3.536-3.744,6.655-3.744
		c1.977,0,2.393,1.457,2.393,2.6c0,2.496-3.016,5.824-4.16,8.216c-1.248,2.287-0.208,2.91,2.288,1.248
		c3.119-2.08,6.031-5.824,9.463-10.712c1.248-1.768,2.704-3.848,3.848-5.511c-3.432,0-32.029,0.624-32.029,0.624l-1.56-1.56
		l34.213-0.104c0,0,3.12-5.2,5.72-5.2c0.208,0,0.208,0,0.208,0c0.416,0,0.208,0.208,0,0.52c-1.144,1.768-3.12,4.68-3.12,4.68H175.75
		L175.75,23.398z M52.83,41.598c3.952,0,11.543-11.96,7.072-11.96C56.366,29.638,48.566,41.598,52.83,41.598L52.83,41.598z
		 M77.996,22.358c-1.144,0-1.976,0.832-1.976,1.976c0,1.04,0.832,1.872,1.976,1.872c1.04,0,1.872-0.832,1.872-1.872
		C79.868,23.19,79.036,22.358,77.996,22.358L77.996,22.358z M124.065,34.213c-2.184,3.225-3.224,6.76-2.08,7.488
		c1.145,0.832,4.056-1.352,6.24-4.68c2.184-3.225,3.224-6.76,1.976-7.488C129.057,28.702,126.25,30.886,124.065,34.213
		L124.065,34.213z"/>
	
		<line fill="none" stroke="#000000" stroke-width="0.6498" stroke-linecap="round" stroke-miterlimit="2.6131" x1="44.303" y1="48.98" x2="139.144" y2="48.98"/>
	<path fill-rule="evenodd" clip-rule="evenodd" d="M43.679,58.133c0.104,0,0.104,0,0.104-0.105v-0.104c0-1.248,0-1.455,0-1.768
		c-0.104-0.313-0.104-0.416-0.416-0.416c-0.104,0-0.208-0.104-0.312-0.104s-0.208,0-0.208,0c0-0.105,0.104-0.105,0.208-0.105
		c0.52,0,1.04,0,1.248,0c0.208,0,0.832,0,1.144,0c0.104,0,0.208,0,0.208,0.105c0,0-0.104,0-0.208,0
		c-0.104,0-0.104,0.104-0.208,0.104c-0.313,0-0.313,0.104-0.313,0.416c-0.104,0.313-0.104,0.52-0.104,1.768v1.455
		c0,0.729,0,1.354,0.104,1.664c0,0.313,0.104,0.416,0.313,0.521c0.104,0,0.312,0,0.416,0s0.208,0,0.208,0.104c0,0-0.104,0-0.208,0
		c-0.52,0-1.144,0-1.352,0c-0.208,0-0.728,0-1.144,0c-0.104,0-0.104,0-0.104,0c0-0.104,0-0.104,0.104-0.104s0.208,0,0.312,0
		c0.208-0.105,0.208-0.209,0.208-0.521c0.104-0.311,0.104-0.936,0.104-1.664v-0.727c0-0.105,0-0.105-0.104-0.105h-3.328
		c0,0-0.104,0-0.104,0.105v0.727c0,0.729,0,1.354,0.104,1.664c0,0.313,0.104,0.416,0.312,0.521c0.104,0,0.312,0,0.416,0
		s0.208,0,0.208,0.104c0,0-0.104,0-0.208,0c-0.52,0-1.144,0-1.352,0c-0.208,0-0.728,0-1.144,0c-0.104,0-0.104,0-0.104,0
		c0-0.104,0-0.104,0.104-0.104s0.208,0,0.312,0c0.208-0.105,0.208-0.209,0.208-0.521c0.104-0.311,0.104-0.936,0.104-1.664v-1.455
		c0-1.248,0-1.455,0-1.768s-0.104-0.416-0.416-0.416c-0.104,0-0.208-0.104-0.312-0.104s-0.208,0-0.208,0
		c0-0.105,0.104-0.105,0.208-0.105c0.52,0,1.04,0,1.248,0c0.208,0,0.832,0,1.144,0c0.104,0,0.208,0,0.208,0.105c0,0-0.104,0-0.208,0
		c0,0-0.104,0.104-0.208,0.104c-0.312,0-0.312,0.104-0.312,0.416c-0.104,0.313-0.104,0.52-0.104,1.768v0.104
		c0,0.105,0.104,0.105,0.104,0.105H43.679L43.679,58.133z"/>
	<path fill-rule="evenodd" clip-rule="evenodd" d="M47.422,58.652c0-1.457,1.04-3.225,3.64-3.225c2.288,0,3.64,1.145,3.64,3.016
		c0,1.873-1.456,3.328-3.64,3.328C48.462,61.771,47.422,60.107,47.422,58.652L47.422,58.652z M53.454,58.756
		c0-1.768-1.144-2.912-2.6-2.912c-1.04,0-2.184,0.52-2.184,2.496c0,1.768,1.04,3.016,2.704,3.016
		C51.998,61.355,53.454,61.148,53.454,58.756L53.454,58.756z"/>
	<path fill-rule="evenodd" clip-rule="evenodd" d="M58.549,55.947l-1.352,0.105c-0.52,0-0.728,0-0.832,0.207
		c-0.104,0.104-0.208,0.209-0.208,0.313c0,0,0,0.104-0.104,0.104c0,0,0-0.104,0-0.207c0-0.105,0.104-0.832,0.104-0.938
		c0.104-0.104,0.104-0.104,0.104-0.104c0.104,0,0.208,0.104,0.416,0.104s0.624,0,0.832,0h3.536c0.52,0,0.728-0.104,0.832-0.104
		s0.104,0.104,0.104,0.209c0,0.207,0,0.727,0,0.936c0,0.104-0.104,0.104-0.104,0.104c-0.104,0-0.104,0-0.104-0.104v-0.104
		c0-0.209-0.312-0.416-1.04-0.416l-1.144-0.105v3.432c0,0.729,0,1.354,0.104,1.664c0,0.313,0,0.416,0.312,0.521
		c0.104,0,0.312,0,0.416,0s0.208,0,0.208,0.104c0,0-0.104,0-0.208,0c-0.624,0-1.144,0-1.352,0c-0.208,0-0.832,0-1.144,0
		c-0.104,0-0.208,0-0.208,0c0-0.104,0.104-0.104,0.208-0.104s0.208,0,0.312,0c0.104-0.105,0.208-0.209,0.208-0.521
		c0.104-0.311,0.104-0.936,0.104-1.664V55.947L58.549,55.947z"/>
	<path fill-rule="evenodd" clip-rule="evenodd" d="M64.373,57.924c0-1.248,0-1.455,0-1.768s-0.104-0.416-0.312-0.416
		c-0.104,0-0.312-0.104-0.416-0.104s-0.104,0-0.104,0c0-0.105,0-0.105,0.208-0.105c0.416,0,1.04,0,1.248,0c0.312,0,1.976,0,2.184,0
		c0.208,0,0.312,0,0.416,0l0.104-0.104c0.104,0,0.104,0.104,0.104,0.104c0,0.105-0.104,0.209-0.104,0.521
		c0,0.104,0,0.416-0.104,0.52c0,0.104,0,0.104,0,0.104c-0.104,0-0.104,0-0.104-0.104c0,0,0-0.209-0.104-0.313
		c0-0.104-0.104-0.207-0.521-0.207c-0.208-0.105-1.144-0.105-1.248-0.105s-0.104,0-0.104,0.105v2.08c0,0,0,0.104,0.104,0.104
		c0.208,0,1.144,0,1.352,0c0.208-0.104,0.417-0.104,0.417-0.209c0.104,0,0.104-0.104,0.208-0.104c0,0,0,0,0,0.104
		c0,0,0,0.209,0,0.625c-0.104,0.104-0.104,0.416-0.104,0.52s0,0.104-0.104,0.104l0,0c0-0.104,0-0.207-0.104-0.311
		c0-0.209-0.104-0.313-0.417-0.313c-0.208,0-1.04,0-1.248,0c-0.104,0-0.104,0-0.104,0v0.727c0,0.209,0,0.938,0,1.248
		c0,0.521,0.208,0.625,1.04,0.625c0.208,0,0.624,0,0.832-0.104c0.208-0.105,0.312-0.209,0.416-0.521c0-0.104,0-0.207,0.104-0.207
		s0.104,0.104,0.104,0.207c0,0.209-0.104,0.729-0.104,0.938c-0.104,0.207-0.208,0.207-0.52,0.207c-1.352,0-1.976-0.104-2.496-0.104
		c-0.104,0-0.728,0-1.04,0c-0.104,0-0.208,0-0.208,0c0-0.104,0-0.104,0.104-0.104c0.208,0,0.312,0,0.416,0
		c0.104-0.105,0.208-0.209,0.208-0.521c0-0.311,0-0.936,0-1.664V57.924L64.373,57.924z"/>
	<path fill-rule="evenodd" clip-rule="evenodd" d="M72.069,59.379c0,1.041,0,1.561,0.208,1.664c0.104,0.209,0.312,0.209,1.04,0.209
		c0.417,0,0.832,0,1.04-0.209c0.104-0.104,0.208-0.311,0.208-0.52c0,0,0-0.104,0.104-0.104c0,0,0.104,0,0.104,0.104
		s-0.104,0.729-0.208,0.936c0,0.209-0.104,0.313-0.52,0.313c-1.248,0-1.872-0.104-2.6-0.104c-0.208,0-0.728,0-1.04,0
		c-0.104,0-0.208,0-0.208,0c0-0.104,0-0.104,0.104-0.104c0.208,0,0.312,0,0.312,0c0.208-0.105,0.208-0.209,0.312-0.521
		c0-0.311,0-0.936,0-1.664v-1.455c0-1.248,0-1.455,0-1.768s-0.104-0.416-0.416-0.416c0,0-0.104-0.104-0.208-0.104s-0.208,0-0.208,0
		c0-0.105,0.104-0.105,0.208-0.105c0.416,0,0.936,0,1.248,0c0.208,0,0.832,0,1.145,0c0.104,0,0.208,0,0.208,0.105
		c0,0-0.104,0-0.208,0c-0.104,0-0.208,0.104-0.313,0.104c-0.208,0-0.312,0.104-0.312,0.416s0,0.52,0,1.768V59.379L72.069,59.379z"/>
	<path fill-rule="evenodd" clip-rule="evenodd" d="M76.852,61.564c-0.104,0-0.208-0.105-0.208-0.209c0-0.52,0.104-0.936,0.104-1.145
		c0-0.104,0-0.207,0.104-0.207c0.104,0,0.104,0.104,0.104,0.207c0,0.105,0,0.209,0.104,0.416c0.104,0.625,0.624,0.832,1.249,0.832
		c0.728,0,1.144-0.52,1.144-0.936s-0.104-0.832-0.832-1.352l-0.416-0.313c-1.04-0.623-1.353-1.248-1.353-1.871
		c0-0.936,0.832-1.561,2.08-1.561c0.52,0,0.936,0.104,1.144,0.104c0.104,0,0.104,0.105,0.104,0.105c0,0.104,0,0.416,0,1.039
		c0,0.104,0,0.209-0.104,0.209s-0.104,0-0.104-0.105c0-0.104,0-0.416-0.208-0.623c-0.104-0.104-0.416-0.313-0.936-0.313
		c-0.728,0-1.04,0.313-1.04,0.832c0,0.313,0.208,0.625,0.936,1.145l0.208,0.207c1.04,0.729,1.456,1.248,1.456,2.08
		c0,0.416-0.208,1.041-0.832,1.352c-0.416,0.313-0.936,0.313-1.456,0.313C77.684,61.771,77.269,61.771,76.852,61.564L76.852,61.564z
		"/>
	<path fill-rule="evenodd" clip-rule="evenodd" d="M87.251,58.133c-0.416-0.521-0.52-0.832-0.52-1.248
		c0-0.625,0.625-1.457,2.184-1.457c0.416,0,0.832,0.104,1.04,0.209c0.208,0,0.208,0.104,0.208,0.207
		c0,0.209-0.104,0.832-0.104,1.041c-0.104,0.104-0.104,0.104-0.104,0.104c-0.104,0-0.104,0-0.104-0.104
		c0-0.313-0.104-0.521-0.208-0.729c-0.208-0.209-0.52-0.416-1.04-0.416c-0.312,0-0.936,0.313-0.936,0.936
		c0,0.832,0.728,1.457,1.456,2.184c0.312,0.313,1.352,1.248,1.56,1.352c0.208-0.207,0.416-0.727,0.416-1.246
		c0-0.105,0-0.313-0.104-0.418c-0.208-0.104-0.313-0.104-0.521-0.104h-0.104c0-0.104,0.104-0.104,0.208-0.104c0.208,0,0.52,0,1.04,0
		c0.208,0,0.312,0.104,0.312,0.207c0,0.625-0.416,1.354-0.936,1.873c0.624,0.52,1.04,0.729,1.248,0.832
		c0.312,0.207,0.832,0.313,0.936,0.313c0.104,0,0.104,0,0.104,0.104c0,0,0,0-0.208,0h-0.729c-0.936,0-1.248-0.104-2.08-0.625
		c-0.208,0.313-0.832,0.729-2.08,0.729c-1.872,0-2.392-1.039-2.392-1.768C85.796,59.068,86.731,58.34,87.251,58.133L87.251,58.133z
		 M89.956,60.836c-0.521-0.416-1.352-1.248-1.56-1.457c-0.208-0.207-0.832-0.832-0.936-1.039c-0.313,0.207-0.625,0.625-0.625,1.248
		c0,1.039,0.728,1.664,1.664,1.664C89.228,61.252,89.748,60.939,89.956,60.836L89.956,60.836z"/>
	<path fill-rule="evenodd" clip-rule="evenodd" d="M97.859,57.924c0-1.248,0-1.455,0-1.768s-0.104-0.416-0.313-0.416
		c-0.104,0-0.312-0.104-0.415-0.104c-0.104,0-0.104,0-0.104,0c0-0.105,0-0.105,0.208-0.105c0.416,0,0.937,0,1.144,0
		c0.313,0,1.04,0,1.248,0c0.624,0,1.145,0.105,1.664,0.313c0.208,0.209,0.624,0.625,0.624,1.145c0,0.623-0.312,1.145-1.248,1.871
		c0.832,0.832,1.456,1.561,1.977,2.08c0.415,0.52,0.831,0.52,0.936,0.625c0.104,0,0.208,0,0.312,0c0,0,0.104,0,0.104,0.104
		c0,0-0.104,0-0.208,0h-0.832c-0.52,0-0.729,0-0.937-0.104c-0.415-0.209-0.728-0.625-1.247-1.248
		c-0.313-0.416-0.729-0.938-0.832-1.145c-0.104,0-0.104,0-0.208,0h-0.729h-0.104v0.104c0,0.832,0,1.457,0.104,1.768
		c0,0.313,0.104,0.416,0.313,0.521c0.104,0,0.312,0,0.416,0c0.104,0,0.104,0,0.104,0.104c0,0,0,0-0.104,0c-0.521,0-1.248,0-1.353,0
		c-0.207,0-0.728,0-1.039,0c-0.104,0-0.208,0-0.208,0c0-0.104,0-0.104,0.104-0.104c0.208,0,0.312,0,0.312,0
		c0.209-0.105,0.313-0.209,0.313-0.521c0-0.311,0-0.936,0-1.664V57.924L97.859,57.924z M98.899,58.547c0,0.105,0,0.105,0.104,0.105
		c0.208,0.104,0.416,0.104,0.729,0.104c0.312,0,0.416,0,0.624-0.104c0.208-0.209,0.52-0.52,0.52-1.248
		c0-1.145-0.832-1.457-1.352-1.457c-0.313,0-0.416,0-0.521,0c-0.104,0-0.104,0.105-0.104,0.105V58.547L98.899,58.547z"/>
	<path fill-rule="evenodd" clip-rule="evenodd" d="M105.554,57.924c0-1.248,0-1.455,0-1.768s-0.104-0.416-0.416-0.416
		c0,0-0.208-0.104-0.312-0.104c-0.104,0-0.104,0-0.104,0c0-0.105,0-0.105,0.104-0.105c0.52,0,1.04,0,1.352,0
		c0.208,0,1.976,0,2.184,0c0.104,0,0.313,0,0.313,0c0.104,0,0.104-0.104,0.208-0.104v0.104c0,0.105,0,0.209,0,0.521
		c0,0.104-0.104,0.416-0.104,0.52s0,0.104-0.104,0.104c0,0,0,0,0-0.104c0,0-0.104-0.209-0.104-0.313
		c-0.104-0.104-0.104-0.207-0.623-0.207c-0.104-0.105-1.041-0.105-1.249-0.105c0,0,0,0,0,0.105v2.08v0.104c0.208,0,1.249,0,1.456,0
		c0.208-0.104,0.313-0.104,0.416-0.209c0.104,0,0.104-0.104,0.104-0.104c0.104,0,0.104,0,0.104,0.104c0,0-0.104,0.209-0.104,0.625
		c0,0.104,0,0.416,0,0.52s0,0.104-0.104,0.104h-0.104c0-0.104,0-0.207,0-0.311c0-0.209-0.208-0.313-0.52-0.313
		c-0.104,0-1.041,0-1.249,0l0,0v0.727c0,0.209,0,0.938,0,1.248c0,0.521,0.104,0.625,1.04,0.625c0.209,0,0.624,0,0.832-0.104
		c0.208-0.105,0.313-0.209,0.416-0.521c0-0.104,0-0.207,0.104-0.207c0,0,0,0.104,0,0.207c0,0.209,0,0.729-0.104,0.938
		c0,0.207-0.104,0.207-0.416,0.207c-1.352,0-1.976-0.104-2.495-0.104c-0.208,0-0.729,0-1.145,0c-0.104,0-0.104,0-0.104,0
		c0-0.104,0-0.104,0.104-0.104c0.104,0,0.208,0,0.313,0c0.208-0.105,0.208-0.209,0.312-0.521c0-0.311,0-0.936,0-1.664V57.924
		L105.554,57.924z"/>
	<path fill-rule="evenodd" clip-rule="evenodd" d="M112.001,61.564c-0.104,0-0.207-0.105-0.207-0.209
		c0-0.52,0.104-0.936,0.104-1.145c0-0.104,0-0.207,0.104-0.207c0.104,0,0.104,0.104,0.104,0.207c0,0.105,0,0.209,0,0.416
		c0.208,0.625,0.728,0.832,1.352,0.832c0.729,0,1.145-0.52,1.145-0.936s-0.104-0.832-0.832-1.352l-0.416-0.313
		c-1.04-0.623-1.353-1.248-1.353-1.871c0-0.936,0.832-1.561,2.08-1.561c0.521,0,0.936,0.104,1.145,0.104
		c0.104,0,0.104,0.105,0.104,0.105c0,0.104,0,0.416,0,1.039c0,0.104,0,0.209-0.104,0.209c-0.104,0-0.104,0-0.104-0.105
		c0-0.104,0-0.416-0.208-0.623c-0.104-0.104-0.416-0.313-0.936-0.313c-0.729,0-1.04,0.313-1.04,0.832
		c0,0.313,0.208,0.625,0.936,1.145l0.208,0.207c1.04,0.729,1.456,1.248,1.456,2.08c0,0.416-0.208,1.041-0.832,1.352
		c-0.416,0.313-0.936,0.313-1.456,0.313C112.73,61.771,112.417,61.771,112.001,61.564L112.001,61.564z"/>
	<path fill-rule="evenodd" clip-rule="evenodd" d="M118.034,58.652c0-1.457,0.936-3.225,3.64-3.225c2.184,0,3.536,1.145,3.536,3.016
		c0,1.873-1.456,3.328-3.64,3.328C118.969,61.771,118.034,60.107,118.034,58.652L118.034,58.652z M123.961,58.756
		c0-1.768-1.145-2.912-2.601-2.912c-1.039,0-2.184,0.52-2.184,2.496c0,1.768,1.04,3.016,2.704,3.016
		C122.505,61.355,123.961,61.148,123.961,58.756L123.961,58.756z"/>
	<path fill-rule="evenodd" clip-rule="evenodd" d="M127.705,57.924c0-1.248,0-1.455,0-1.768s-0.104-0.416-0.416-0.416
		c0,0-0.208-0.104-0.312-0.104c-0.104,0-0.104,0-0.104,0c0-0.105,0-0.105,0.104-0.105c0.52,0,1.04,0,1.248,0
		c0.312,0,0.936,0,1.248,0c0.52,0,1.144,0.105,1.663,0.313c0.208,0.209,0.521,0.625,0.521,1.145c0,0.623-0.208,1.145-1.145,1.871
		c0.832,0.832,1.456,1.561,1.977,2.08c0.416,0.52,0.832,0.52,0.936,0.625c0.104,0,0.208,0,0.208,0c0.104,0,0.104,0,0.104,0.104
		c0,0,0,0-0.104,0H132.8c-0.52,0-0.728,0-0.936-0.104c-0.416-0.209-0.729-0.625-1.248-1.248c-0.313-0.416-0.728-0.938-0.832-1.145
		c-0.104,0-0.104,0-0.208,0h-0.728c-0.104,0-0.104,0-0.104,0v0.104c0,0.832,0,1.457,0.104,1.768c0,0.313,0,0.416,0.312,0.521
		c0.104,0,0.313,0,0.416,0s0.104,0,0.104,0.104c0,0-0.104,0-0.207,0c-0.521,0-1.145,0-1.248,0c-0.208,0-0.729,0-1.04,0
		c-0.208,0-0.208,0-0.208,0c0-0.104,0-0.104,0.104-0.104c0.208,0,0.313,0,0.313,0c0.208-0.105,0.208-0.209,0.312-0.521
		c0-0.311,0-0.936,0-1.664V57.924L127.705,57.924z M128.745,58.547c0,0.105,0,0.105,0.104,0.105
		c0.208,0.104,0.416,0.104,0.624,0.104c0.416,0,0.52,0,0.624-0.104c0.312-0.209,0.52-0.52,0.52-1.248
		c0-1.145-0.832-1.457-1.352-1.457c-0.208,0-0.313,0-0.416,0c-0.104,0-0.104,0.105-0.104,0.105V58.547L128.745,58.547z"/>
	<path fill-rule="evenodd" clip-rule="evenodd" d="M136.024,55.947l-1.247,0.105c-0.521,0-0.729,0-0.832,0.207
		c-0.104,0.104-0.208,0.209-0.208,0.313c0,0,0,0.104-0.104,0.104c0,0-0.104-0.104-0.104-0.207c0-0.105,0.208-0.832,0.208-0.938
		c0-0.104,0.104-0.104,0.104-0.104c0.104,0,0.208,0.104,0.416,0.104s0.521,0,0.832,0h3.536c0.52,0,0.728-0.104,0.831-0.104
		c0.104,0,0.104,0.104,0.104,0.209c0,0.207-0.104,0.727-0.104,0.936c0,0.104,0,0.104,0,0.104c-0.104,0-0.104,0-0.104-0.104v-0.104
		c-0.104-0.209-0.312-0.416-1.04-0.416l-1.144-0.105v3.432c0,0.729,0,1.354,0,1.664c0.104,0.313,0.104,0.416,0.416,0.521
		c0.104,0,0.312,0,0.416,0c0.104,0,0.104,0,0.104,0.104c0,0,0,0-0.104,0c-0.624,0-1.145,0-1.456,0c-0.208,0-0.729,0-1.04,0
		c-0.104,0-0.208,0-0.208,0c0-0.104,0-0.104,0.104-0.104c0.209,0,0.313,0,0.313,0c0.208-0.105,0.312-0.209,0.312-0.521
		c0-0.311,0-0.936,0-1.664V55.947L136.024,55.947z"/>
	<path fill-rule="evenodd" clip-rule="evenodd" d="M141.328,61.564c-0.208,0-0.208-0.105-0.208-0.209
		c0-0.52,0.104-0.936,0.104-1.145c0-0.104,0-0.207,0.104-0.207c0,0,0.104,0.104,0.104,0.207c0,0.105,0,0.209,0,0.416
		c0.208,0.625,0.728,0.832,1.248,0.832c0.831,0,1.248-0.52,1.248-0.936s-0.208-0.832-0.937-1.352l-0.312-0.313
		c-1.04-0.623-1.353-1.248-1.353-1.871c0-0.936,0.832-1.561,2.08-1.561c0.521,0,0.936,0.104,1.144,0.104
		c0.104,0,0.104,0.105,0.104,0.105c0,0.104,0,0.416,0,1.039c0,0.104-0.104,0.209-0.104,0.209c-0.104,0-0.104,0-0.104-0.105
		c0-0.104-0.104-0.416-0.208-0.623c-0.208-0.104-0.416-0.313-1.04-0.313s-1.04,0.313-1.04,0.832c0,0.313,0.208,0.625,0.937,1.145
		l0.312,0.207c1.04,0.729,1.456,1.248,1.456,2.08c0,0.416-0.208,1.041-0.832,1.352c-0.521,0.313-0.936,0.313-1.456,0.313
		C142.056,61.771,141.64,61.771,141.328,61.564L141.328,61.564z"/>
</g>
</svg>
