<svg xmlns="http://www.w3.org/2000/svg" width="27" height="25" viewBox="0 0 27 25">
    <g fill="none" fill-rule="evenodd" stroke="#9C979E" stroke-width="1.5">
        <g>
            <path d="M8.4 7.268L10.722 3.73 7.543.551M5.027 15.185L2.705 18.723 5.884 21.903M.012 3L10.722 3" transform="translate(1) translate(13.75 .112)"/>
        </g>
        <path d="M13.762 7L19.117 7M13.762 10L16.455 10" transform="translate(1)"/>
        <g>
            <path d="M16.455 17L24.437 17M8.672 4.945L8.634 1.69A1.26 1.26 0 007.092.476L5.778.778l-3.042.699h0A3.121 3.121 0 00.393 5.218l3.553 15.465a2.744 2.744 0 003.29 2.059l.367-.084 3.043-.7 1.282-.294a1.26 1.26 0 00.847-1.788l-1.451-2.93a1.26 1.26 0 00-1.412-.67l-.383.088a1.261 1.261 0 01-1.51-.946L6.27 7.808a1.26 1.26 0 01.946-1.51l.478-.11a1.26 1.26 0 00.978-1.243h0z" transform="translate(1) translate(0 1.362)"/>
        </g>
    </g>
</svg>
