<svg xmlns="http://www.w3.org/2000/svg" width="25" height="20" viewBox="0 0 25 20">
    <g fill="none" fill-rule="evenodd" stroke="#108DE2" stroke-width="1.5">
        <path d="M21.682 9.046c0 1.862-4.8 3.37-10.722 3.37S.237 10.908.237 9.046c0-1.86 4.8-3.37 10.723-3.37 5.922 0 10.722 1.51 10.722 3.37h0z" transform="translate(1 1)"/>
        <path d="M14.204 9a3.244 3.244 0 11-6.488 0 3.244 3.244 0 016.488 0h0zM7.884 3.241L7.884.237.237.237.237 5.677M15.21 3.241L15.21.237 22.857.237 22.857 5.677M7.884 14.973L7.884 17.977.237 17.977.237 12.538M15.21 14.973L15.21 17.977 22.857 17.977 22.857 12.538" transform="translate(1 1)"/>
    </g>
</svg>
