<svg xmlns="http://www.w3.org/2000/svg" width="28" height="27" viewBox="0 0 28 27">
    <path fill="none" fill-rule="evenodd" stroke="#D3D3D3" stroke-width="2" d="M16.638 25.617a.988.988 0 01-.74-.332l-1.825-2.056c-.264.011-.53.011-.789 0l-1.825 2.056a.987.987 0 01-1.17.233l-1.906-.92a.902.902 0 01-.065-.028l-1.938-.936a.989.989 0 01-.545-1.06l.469-2.703a9.286 9.286 0 01-.495-.621l-2.741-.145a.989.989 0 01-.912-.767l-.47-2.064a.855.855 0 01-.018-.069l-.478-2.098a.989.989 0 01.488-1.086l2.408-1.324c.048-.26.107-.517.176-.769L2.666 8.694a.989.989 0 01.03-1.19l1.34-1.685.03-.036.01-.01 1.329-1.666a.99.99 0 011.155-.295L9.09 4.87c.242-.129.49-.248.744-.357l.723-2.55c.12-.425.509-.719.951-.719h4.341c.443 0 .831.294.951.72l.723 2.551c.252.108.5.226.741.355l2.53-1.06a.989.989 0 011.155.296l1.341 1.68c.01.01.018.021.027.032l1.34 1.685c.274.345.287.83.03 1.19l-1.592 2.23c.07.254.128.513.176.776l2.406 1.316a.989.989 0 01.49 1.089l-.965 4.233a.989.989 0 01-.912.768l-2.744.145c-.156.213-.321.419-.492.617l.468 2.707a.989.989 0 01-.544 1.06l-1.938.935a.902.902 0 01-.066.028h0l-1.906.92a.987.987 0 01-.43.1h0zm-2.96-7.626a4.513 4.513 0 01-4.509-4.508 4.513 4.513 0 014.508-4.508 4.515 4.515 0 014.511 4.508 4.515 4.515 0 01-4.51 4.508h0z"/>
</svg>
