<svg xmlns="http://www.w3.org/2000/svg" width="23" height="22" viewBox="0 0 23 22">
    <g fill="none" fill-rule="evenodd" stroke="#9C979E" stroke-width="1.5">
        <path d="M7.035 3.636a3.398 3.398 0 11-6.797 0 3.398 3.398 0 016.797 0h0zM21.21 3.636a3.398 3.398 0 11-6.796 0 3.398 3.398 0 016.796 0h0zM7.035 16.415a3.398 3.398 0 11-6.797 0 3.398 3.398 0 016.797 0h0zM21.21 16.415a3.398 3.398 0 11-6.796 0 3.398 3.398 0 016.796 0h0zM15.29 5.909L6.158 14.142" transform="translate(1 1)"/>
    </g>
</svg>
